<svg xmlns="http://www.w3.org/2000/svg" viewBox="0 0 14.69 14.99"><defs><style>.cls-1{fill:#3e82f1;}.cls-1,.cls-2,.cls-3,.cls-4{fill-rule:evenodd;}.cls-2{fill:#32a753;}.cls-3{fill:#f9bb00;}.cls-4{fill:#e74133;}</style></defs><g id="레이어_2" data-name="레이어 2"><g id="icon"><path class="cls-1" d="M14.69,7.66a8.45,8.45,0,0,0-.14-1.53H7.49V9h4A3.44,3.44,0,0,1,10,11.29v1.88h2.42a7.29,7.29,0,0,0,2.24-5.51Z"/><path class="cls-2" d="M7.49,15a7.12,7.12,0,0,0,5-1.82L10,11.29A4.51,4.51,0,0,1,3.3,8.92H.8v1.94A7.48,7.48,0,0,0,7.49,15Z"/><path class="cls-3" d="M3.3,8.92a4.53,4.53,0,0,1,0-2.85V4.13H.8a7.48,7.48,0,0,0,0,6.73L3.3,8.92Z"/><path class="cls-4" d="M7.49,3A4.08,4.08,0,0,1,10.36,4.1L12.51,2A7.22,7.22,0,0,0,7.49,0,7.48,7.48,0,0,0,.8,4.13L3.3,6.07A4.47,4.47,0,0,1,7.49,3Z"/></g></g></svg>